<?xml version="1.0" encoding="UTF-8"?>
<svg width="800" height="400" xmlns="http://www.w3.org/2000/svg">
  <!-- Background pattern -->
  <pattern id="checkerboard" x="0" y="0" width="20" height="20" patternUnits="userSpaceOnUse">
    <rect x="0" y="0" width="10" height="10" fill="#f5f5f5"/>
    <rect x="10" y="0" width="10" height="10" fill="#eeeeee"/>
    <rect x="0" y="10" width="10" height="10" fill="#eeeeee"/>
    <rect x="10" y="10" width="10" height="10" fill="#f5f5f5"/>
  </pattern>
  <rect width="800" height="400" fill="url(#checkerboard)"/>

  <text x="400" y="30" font-weight="bold" font-size="20" text-anchor="middle" fill="#333">Available Models</text>

  <!-- Mobile/Small Models -->
  <text x="150" y="70" font-weight="bold" font-size="16" fill="#333">Smaller &amp; Faster</text>
  <rect x="50" y="80" width="200" height="60" fill="#e1f5fe" stroke="#333" stroke-width="1" rx="5" ry="5"/>
  <text x="150" y="105" font-size="14" text-anchor="middle" fill="#333">MobileNetV2</text>
  <text x="150" y="125" font-size="12" text-anchor="middle" fill="#666">Default, fastest inference</text>

  <rect x="50" y="150" width="200" height="60" fill="#e1f5fe" stroke="#333" stroke-width="1" rx="5" ry="5"/>
  <text x="150" y="175" font-size="14" text-anchor="middle" fill="#333">EfficientNetB0</text>
  <text x="150" y="195" font-size="12" text-anchor="middle" fill="#666">Balanced performance</text>

  <!-- Medium Models -->
  <text x="400" y="70" font-weight="bold" font-size="16" fill="#333">Medium Performance</text>
  <rect x="300" y="80" width="200" height="60" fill="#e8f5e9" stroke="#333" stroke-width="1" rx="5" ry="5"/>
  <text x="400" y="105" font-size="14" text-anchor="middle" fill="#333">ResNet50</text>
  <text x="400" y="125" font-size="12" text-anchor="middle" fill="#666">Good accuracy/speed balance</text>

  <rect x="300" y="150" width="200" height="60" fill="#e8f5e9" stroke="#333" stroke-width="1" rx="5" ry="5"/>
  <text x="400" y="175" font-size="14" text-anchor="middle" fill="#333">DenseNet121</text>
  <text x="400" y="195" font-size="12" text-anchor="middle" fill="#666">Improved feature reuse</text>

  <!-- Large Models -->
  <text x="650" y="70" font-weight="bold" font-size="16" fill="#333">Larger &amp; More Accurate</text>
  <rect x="550" y="80" width="200" height="60" fill="#fff8e1" stroke="#333" stroke-width="1" rx="5" ry="5"/>
  <text x="650" y="105" font-size="14" text-anchor="middle" fill="#333">ResNet152</text>
  <text x="650" y="125" font-size="12" text-anchor="middle" fill="#666">Deep residual learning</text>

  <rect x="550" y="150" width="200" height="60" fill="#fff8e1" stroke="#333" stroke-width="1" rx="5" ry="5"/>
  <text x="650" y="175" font-size="14" text-anchor="middle" fill="#333">EfficientNetB7</text>
  <text x="650" y="195" font-size="12" text-anchor="middle" fill="#666">Highest accuracy</text>

  <!-- VGG Models -->
  <rect x="175" y="250" width="200" height="60" fill="#f3e5f5" stroke="#333" stroke-width="1" rx="5" ry="5"/>
  <text x="275" y="275" font-size="14" text-anchor="middle" fill="#333">VGG16 / VGG19</text>
  <text x="275" y="295" font-size="12" text-anchor="middle" fill="#666">Classic architecture</text>

  <!-- Other Models -->
  <rect x="425" y="250" width="200" height="60" fill="#f3e5f5" stroke="#333" stroke-width="1" rx="5" ry="5"/>
  <text x="525" y="275" font-size="14" text-anchor="middle" fill="#333">DenseNet169 / 201</text>
  <text x="525" y="295" font-size="12" text-anchor="middle" fill="#666">Higher capacity variants</text>

  <text x="400" y="350" font-size="14" text-anchor="middle" fill="#333">Model selection based on dataset size and available compute resources</text>
</svg>